<svg xmlns="http://www.w3.org/2000/svg" viewBox="0 0 1635 343">
  <path d="M 1512.47 24.78 C 1522.20 23.68 1534.04 27.98 1538.93 36.93 C 1541.24 40.99 1542.87 45.38 1541.89 50.11 C 1540.60 56.26 1538.92 62.60 1533.50 66.40 C 1527.78 70.81 1521.09 72.32 1513.94 71.89 C 1503.71 71.97 1493.34 64.68 1490.81 54.63 C 1489.49 47.70 1490.04 40.08 1494.34 34.23 C 1498.32 28.51 1505.82 25.72 1512.47 24.78 Z" fill="#0a8935"/>
  <path d="M 932.14 33.41 C 938.24 32.25 944.80 32.83 951.00 32.72 C 958.33 32.87 965.75 32.37 973.05 33.04 C 975.03 33.36 978.33 33.64 978.31 36.32 C 978.88 42.83 978.33 49.46 978.48 56.00 C 978.60 73.20 978.16 90.43 978.65 107.62 C 982.77 105.50 986.66 103.02 990.70 100.76 C 996.22 97.62 1002.29 95.41 1008.42 93.78 C 1014.68 92.09 1020.60 92.53 1027.00 92.45 C 1032.42 92.50 1037.74 92.20 1043.03 93.36 C 1053.53 95.72 1063.39 99.43 1071.94 106.11 C 1081.96 114.07 1088.71 126.41 1092.16 138.57 C 1094.63 146.77 1094.20 154.58 1094.25 163.00 C 1094.36 191.67 1094.09 220.36 1094.41 249.03 C 1094.38 251.74 1094.41 254.82 1093.47 257.40 C 1092.07 258.74 1089.87 258.60 1088.06 258.74 C 1082.04 258.88 1076.02 258.60 1070.00 258.77 C 1064.17 258.91 1057.88 259.76 1052.07 258.95 C 1049.76 258.60 1047.42 258.07 1045.75 256.30 C 1044.46 254.78 1044.58 252.97 1044.44 251.09 C 1044.56 222.19 1044.59 193.23 1044.47 164.32 C 1044.51 158.56 1042.84 153.28 1040.90 147.93 C 1042.93 149.93 1044.88 151.62 1045.65 154.49 C 1046.95 159.16 1047.27 164.17 1047.42 168.98 C 1047.69 197.91 1047.26 226.84 1047.51 255.76 C 1048.54 255.92 1049.58 256.07 1050.61 256.21 C 1064.10 256.86 1077.71 256.38 1091.22 256.42 C 1091.84 252.36 1092.65 248.07 1092.32 244.00 C 1092.18 240.65 1091.54 237.37 1091.61 234.01 C 1091.57 207.02 1091.62 179.95 1091.58 152.96 C 1091.63 148.13 1089.42 144.48 1088.44 139.89 C 1086.97 132.09 1083.16 124.67 1078.78 118.11 C 1071.47 108.77 1060.77 101.34 1049.07 98.92 C 1043.81 97.79 1039.59 95.05 1034.10 94.89 C 1026.72 94.61 1018.98 94.28 1011.97 96.86 C 1006.63 98.80 1000.89 99.21 995.88 101.71 C 988.92 104.75 984.33 110.54 976.79 112.57 C 976.51 109.39 976.35 106.21 976.33 103.02 C 976.35 80.59 976.35 58.15 976.36 35.72 C 968.87 35.26 961.51 35.50 954.00 35.44 C 946.54 35.51 938.96 35.22 931.54 35.79 L 931.22 37.05 C 931.08 38.32 931.05 39.60 931.02 40.89 C 930.97 108.58 931.06 176.30 931.03 243.99 C 931.02 247.97 930.79 252.11 931.34 256.05 C 937.13 256.84 943.15 256.42 949.00 256.52 C 957.88 256.43 966.77 256.67 975.64 256.39 C 977.37 250.37 976.57 243.27 976.62 237.00 C 976.61 216.00 976.69 195.00 976.56 174.00 C 976.46 165.62 978.18 156.03 983.01 149.03 C 987.36 144.11 992.54 138.16 998.86 135.94 C 1006.56 132.99 1014.52 131.44 1022.66 133.58 C 1027.19 134.81 1032.18 136.25 1036.00 139.07 C 1038.47 141.07 1039.54 144.38 1040.64 147.25 C 1037.60 144.05 1034.38 139.99 1030.09 138.60 C 1026.00 137.20 1021.71 135.94 1017.50 134.97 C 1013.61 134.04 1010.17 135.40 1006.48 136.48 C 1002.08 137.95 997.68 139.02 994.02 141.97 C 990.91 144.50 988.06 147.46 985.49 150.53 C 982.40 154.24 981.71 158.56 980.55 163.10 C 979.28 168.32 978.42 173.59 978.52 178.98 C 978.68 203.01 978.34 227.06 978.65 251.09 C 978.61 253.06 978.64 255.20 978.07 257.11 C 976.75 258.61 974.93 258.74 973.07 259.03 C 968.76 259.49 964.33 259.24 960.00 259.25 C 952.98 259.15 945.96 259.39 938.95 259.24 C 935.72 259.06 931.74 258.88 928.94 257.09 C 927.44 253.11 927.69 248.20 927.67 243.99 C 927.48 215.67 927.66 187.32 927.65 158.99 C 928.70 144.38 928.78 129.62 927.66 115.01 C 927.52 110.34 927.56 105.65 927.95 101.00 C 928.62 93.77 928.34 86.31 928.40 79.00 C 928.35 70.90 928.68 63.07 927.87 55.00 C 927.46 48.61 927.33 41.85 928.80 35.58 C 929.05 34.17 930.95 33.66 932.14 33.41 Z" fill="#010001"/>
  <path d="M 1275.03 35.25 C 1283.60 35.11 1294.25 36.42 1301.28 41.69 C 1302.39 45.66 1301.35 50.44 1300.30 54.35 C 1299.20 58.04 1298.24 62.08 1296.26 65.42 C 1294.70 67.99 1291.92 68.36 1289.15 68.31 C 1283.35 68.04 1278.08 66.84 1272.17 67.81 C 1265.43 68.86 1259.52 73.58 1256.40 79.54 C 1254.13 84.13 1254.17 90.05 1254.67 95.04 C 1255.00 97.53 1255.64 100.66 1257.58 102.42 C 1260.32 103.79 1264.00 103.54 1266.99 103.63 C 1276.20 103.48 1285.40 103.45 1294.61 103.43 C 1294.48 109.63 1294.48 115.83 1294.44 122.04 C 1294.35 126.01 1294.35 130.45 1293.12 134.26 C 1290.34 135.95 1286.16 135.53 1283.02 135.66 C 1274.02 135.46 1265.09 135.63 1256.20 137.19 C 1254.87 147.90 1255.44 159.11 1255.30 170.00 C 1255.10 191.33 1255.49 212.67 1255.27 234.00 C 1255.33 241.14 1254.99 248.27 1254.48 255.39 C 1242.64 255.60 1230.76 255.90 1218.93 255.61 C 1217.20 255.34 1214.28 255.65 1213.91 253.36 C 1213.25 250.69 1213.36 247.76 1213.31 245.02 C 1213.41 212.00 1213.41 178.97 1213.50 145.95 C 1213.32 143.52 1213.59 139.13 1211.45 137.50 C 1206.61 134.72 1199.44 135.67 1193.98 134.75 C 1192.46 134.33 1189.74 134.67 1189.30 132.77 C 1188.68 131.32 1188.52 129.62 1188.37 128.07 C 1187.93 119.84 1187.81 111.60 1188.25 103.36 C 1194.34 103.25 1200.79 103.86 1206.76 102.63 C 1209.79 101.93 1211.43 99.13 1212.31 96.37 C 1213.78 91.23 1213.29 85.39 1214.23 80.05 C 1215.08 74.37 1217.76 69.19 1220.12 63.98 C 1222.35 59.13 1224.91 54.54 1228.78 50.78 C 1235.22 44.25 1243.12 40.75 1251.58 37.61 C 1258.90 34.84 1267.26 35.40 1275.03 35.25 Z" fill="#0a8935"/>
  <path d="M 931.22 37.05 L 931.54 35.79 C 931.11 53.18 931.55 70.60 931.36 88.00 C 931.37 144.02 931.34 200.03 931.34 256.05 C 930.79 252.11 931.02 247.97 931.03 243.99 C 931.06 176.30 930.97 108.58 931.02 40.89 C 931.05 39.60 931.08 38.32 931.22 37.05 Z" fill="#010001"/>
  <path d="M 931.54 35.79 C 938.96 35.22 946.54 35.51 954.00 35.44 C 961.51 35.50 968.87 35.26 976.36 35.72 C 976.35 58.15 976.35 80.59 976.33 103.02 C 976.35 106.21 976.51 109.39 976.79 112.57 C 984.33 110.54 988.92 104.75 995.88 101.71 C 1000.89 99.21 1006.63 98.80 1011.97 96.86 C 1018.98 94.28 1026.72 94.61 1034.10 94.89 C 1039.59 95.05 1043.81 97.79 1049.07 98.92 C 1060.77 101.34 1071.47 108.77 1078.78 118.11 C 1083.16 124.67 1086.97 132.09 1088.44 139.89 C 1089.42 144.48 1091.63 148.13 1091.58 152.96 C 1091.62 179.95 1091.57 207.02 1091.61 234.01 C 1091.54 237.37 1092.18 240.65 1092.32 244.00 C 1092.65 248.07 1091.84 252.36 1091.22 256.42 C 1077.71 256.38 1064.10 256.86 1050.61 256.21 C 1048.88 249.44 1049.45 242.89 1049.43 236.00 C 1049.47 216.00 1049.47 196.00 1049.47 176.00 C 1049.43 170.41 1049.94 164.95 1048.27 159.59 C 1046.41 153.28 1043.66 147.15 1040.19 141.56 C 1037.28 137.27 1032.86 135.09 1028.18 133.21 C 1022.80 131.14 1016.66 131.51 1010.96 131.53 C 1004.10 131.43 997.26 134.09 991.77 138.08 C 988.63 140.84 985.75 143.94 982.70 146.83 C 977.72 152.45 975.27 160.53 975.52 167.98 C 975.66 197.45 975.42 226.92 975.64 256.39 C 966.77 256.67 957.88 256.43 949.00 256.52 C 943.15 256.42 937.13 256.84 931.34 256.05 C 931.34 200.03 931.37 144.02 931.36 88.00 C 931.55 70.60 931.11 53.18 931.54 35.79 Z" fill="#010001"/>
  <path d="M 167.77 95.96 C 177.97 98.79 186.27 105.07 194.68 111.26 C 199.67 114.97 202.75 119.66 206.59 124.42 C 208.07 126.47 210.09 128.70 210.72 131.18 C 211.13 133.77 208.82 135.60 206.96 136.94 C 201.33 140.53 194.89 142.72 189.19 146.26 C 184.83 148.77 180.77 152.19 176.16 154.18 C 174.11 154.99 172.37 154.80 170.60 153.48 C 165.95 149.95 163.16 144.32 158.27 140.82 C 154.72 138.30 150.73 136.10 146.58 134.75 C 141.23 133.36 135.41 133.42 129.93 133.97 C 124.20 134.44 118.65 137.63 113.99 140.82 C 107.03 145.49 102.74 153.75 99.47 161.25 C 96.21 168.72 95.58 176.93 97.43 184.86 C 99.27 191.97 100.89 198.56 105.62 204.39 C 114.68 216.24 131.68 222.52 146.08 217.96 C 153.11 216.00 160.67 212.39 164.82 206.13 C 166.92 203.41 169.04 199.30 172.29 197.88 C 173.47 197.27 175.15 198.03 176.33 198.40 C 180.96 200.23 185.21 203.08 189.72 205.23 C 195.30 208.11 201.13 210.43 206.79 213.13 C 208.89 214.32 211.35 215.24 211.46 218.04 C 211.92 221.52 209.69 224.12 207.84 226.80 C 203.99 231.97 199.96 236.91 194.97 241.05 C 190.22 244.95 185.29 249.30 179.81 252.05 C 170.42 256.85 160.59 259.02 150.47 261.64 C 143.82 262.99 136.72 262.55 129.96 262.44 C 124.02 262.33 118.72 260.45 112.99 259.25 C 101.44 257.11 90.34 252.11 80.82 245.26 C 71.88 239.42 63.84 231.64 58.56 222.31 C 55.35 216.24 51.36 209.71 50.02 202.95 C 48.70 196.75 46.55 191.04 45.79 184.71 C 44.68 173.87 46.06 163.05 49.16 152.64 C 52.28 139.46 59.15 127.31 68.91 117.91 C 74.39 112.08 80.90 107.79 87.68 103.63 C 96.11 98.53 106.08 95.58 115.67 93.55 C 132.75 90.73 151.09 91.01 167.77 95.96 Z" fill="#010001"/>
  <path d="M 329.87 92.53 C 332.92 92.76 335.08 95.14 335.33 98.14 C 335.77 103.06 335.40 108.06 335.46 113.00 C 335.36 118.61 335.74 124.27 335.33 129.86 C 334.96 133.29 333.42 137.58 329.55 138.24 C 322.04 139.15 313.44 137.32 305.53 139.97 C 295.94 143.56 288.10 151.40 285.19 161.30 C 282.97 168.97 281.37 177.00 281.52 185.00 C 281.59 202.33 281.52 219.67 281.59 237.01 C 281.60 242.58 283.00 248.57 282.22 254.01 C 281.77 255.87 281.14 258.58 278.81 258.73 C 274.69 259.62 270.19 259.28 266.00 259.31 C 257.31 259.17 248.61 259.43 239.92 259.25 C 237.37 259.04 233.70 259.04 231.75 257.15 C 230.68 255.35 230.63 253.13 230.54 251.09 C 230.77 204.73 230.47 158.37 230.60 112.00 C 230.75 106.48 229.70 98.75 232.96 94.00 C 235.53 93.41 238.33 93.56 240.96 93.54 C 249.99 93.70 259.02 93.67 268.05 93.54 C 271.26 93.58 275.59 93.51 278.30 95.51 C 279.83 99.65 279.65 104.41 280.52 108.74 C 288.64 103.65 295.88 98.27 305.21 95.43 C 313.19 92.59 321.45 91.82 329.87 92.53 Z" fill="#010001"/>
  <path d="M 653.99 92.34 C 660.22 92.40 666.09 92.07 672.18 93.72 C 678.10 95.33 684.36 97.13 689.60 100.41 C 691.73 101.67 692.97 103.57 694.10 105.71 C 688.20 103.29 682.67 100.45 676.47 98.80 C 671.14 97.37 666.73 94.97 661.10 94.81 C 655.07 94.67 648.92 94.63 642.88 94.84 C 637.81 95.08 634.09 97.75 629.07 98.78 C 623.64 99.90 618.55 102.17 613.87 105.12 C 610.82 107.09 608.09 109.84 604.83 111.43 C 602.50 111.92 599.99 111.78 597.62 111.83 C 597.52 107.40 597.44 103.00 596.68 98.62 C 583.28 98.36 569.87 98.49 556.47 98.50 C 555.88 101.97 555.50 105.46 555.55 108.99 C 555.77 158.12 555.39 207.25 555.71 256.37 C 570.96 256.58 586.27 256.65 601.52 256.32 C 601.44 226.54 601.29 196.75 601.60 166.98 C 601.61 162.54 601.96 158.31 604.29 154.42 C 607.66 148.54 611.66 141.21 617.68 137.74 C 622.47 135.32 626.89 132.97 632.45 133.45 C 629.48 135.94 626.10 137.46 622.53 138.88 C 615.81 141.44 611.15 147.79 608.09 154.03 C 604.81 160.62 604.08 167.74 603.62 175.01 C 603.33 188.00 603.66 201.01 603.56 214.00 C 603.49 218.69 603.79 223.33 604.22 228.00 C 604.77 234.41 603.53 240.60 603.66 247.00 C 603.59 250.31 603.94 253.91 603.13 257.13 C 601.87 258.62 599.87 258.71 598.07 259.00 C 589.83 259.92 582.30 258.41 574.00 258.79 C 568.17 258.97 561.24 260.03 555.60 258.32 C 554.25 257.99 553.72 256.07 553.63 254.86 C 553.26 250.26 553.60 245.61 553.54 241.00 C 553.47 197.34 553.62 153.67 553.46 110.01 C 553.56 105.56 552.85 99.87 554.94 95.82 C 556.10 93.32 559.63 93.63 561.92 93.50 C 570.61 93.64 579.29 93.58 587.98 93.59 C 591.20 93.73 595.48 93.90 598.11 95.96 C 600.85 99.09 601.66 104.13 603.00 107.98 C 606.95 106.05 610.62 103.68 614.41 101.47 C 620.35 97.94 627.17 95.60 633.82 93.82 C 640.60 91.98 647.04 92.42 653.99 92.34 Z" fill="#010001"/>
  <path d="M 831.01 92.36 C 838.12 92.45 845.34 92.11 852.41 92.85 C 861.77 94.34 870.92 97.62 879.39 101.82 C 890.56 107.69 901.62 115.94 906.10 128.22 C 907.44 131.67 906.50 135.25 903.51 137.49 C 898.86 140.70 893.46 142.77 888.65 145.77 C 883.19 148.76 877.29 153.47 871.09 154.49 C 867.06 152.55 864.08 148.13 860.98 145.00 C 856.74 140.49 851.71 138.13 846.63 134.65 C 851.13 135.27 856.06 136.62 859.73 139.38 C 863.69 142.41 865.70 147.57 869.40 150.65 C 871.06 151.97 873.57 151.04 875.32 150.40 C 880.53 148.21 885.21 144.85 890.30 142.39 C 894.50 140.15 899.66 138.30 903.11 134.98 C 904.99 133.06 904.81 130.46 903.99 128.10 C 902.54 124.12 899.21 120.68 896.16 117.84 C 889.88 112.13 883.33 107.02 875.61 103.39 C 868.99 100.17 861.61 98.56 854.41 96.50 C 845.29 93.82 836.63 94.92 827.00 94.70 C 818.44 94.62 811.53 97.55 803.21 99.39 C 795.51 101.13 788.55 104.62 781.96 108.88 C 772.12 114.76 763.50 122.83 757.70 132.77 C 753.16 140.46 749.29 149.26 748.17 158.18 C 746.58 171.12 746.33 184.33 748.80 197.18 C 750.86 207.55 756.60 216.90 762.56 225.49 C 774.68 241.63 793.42 252.74 813.09 256.77 C 823.51 258.02 832.00 261.43 841.83 259.63 C 849.80 258.21 857.94 256.64 865.52 253.76 C 874.39 250.32 882.79 247.40 890.27 241.28 C 896.86 236.16 902.11 229.27 906.33 222.13 C 907.70 220.16 906.60 218.44 904.77 217.37 C 900.52 214.74 896.42 212.32 893.03 208.56 C 897.70 210.26 903.11 211.85 907.11 214.87 C 909.45 216.72 910.40 219.87 908.83 222.53 C 906.60 226.54 903.47 230.08 900.66 233.69 C 896.02 239.52 890.31 242.96 884.65 247.66 C 875.62 254.72 864.86 257.76 853.94 260.42 C 845.62 263.04 837.55 262.56 828.96 262.45 C 824.90 262.37 820.96 261.55 817.06 260.48 C 812.13 259.11 807.07 258.67 802.21 257.12 C 792.88 254.09 784.90 248.83 777.40 242.63 C 773.28 239.88 769.82 237.14 766.76 233.19 C 760.55 227.10 755.76 219.94 751.45 212.42 C 749.71 209.32 748.29 206.06 747.35 202.62 C 745.49 195.78 743.75 189.17 743.56 182.02 C 743.41 175.43 743.31 168.93 744.54 162.45 C 746.12 154.70 748.31 147.11 751.82 140.00 C 755.90 131.79 760.08 124.14 767.12 118.06 C 773.59 111.60 781.14 106.69 788.95 102.02 C 795.87 97.99 803.90 95.97 811.65 93.76 C 818.19 91.82 824.28 92.53 831.01 92.36 Z" fill="#010001"/>
  <path d="M 138.00 94.70 C 144.06 94.81 150.06 94.07 155.77 96.33 C 162.01 98.81 168.66 99.47 174.82 102.09 C 181.48 104.94 188.02 108.70 193.23 113.79 C 197.85 117.99 202.05 122.40 205.21 127.83 C 206.00 129.31 206.76 130.66 206.39 132.41 C 204.73 134.94 201.21 136.33 198.58 137.67 C 191.22 141.07 184.91 145.94 177.64 149.53 C 175.51 150.53 173.35 151.17 171.21 149.79 C 166.38 146.67 163.95 139.87 158.87 137.07 C 149.52 131.27 137.58 129.01 126.84 131.62 C 118.79 133.10 111.00 136.31 106.15 143.22 C 101.12 148.88 96.69 154.49 95.00 162.07 C 93.41 171.44 93.08 181.50 95.10 190.82 C 97.35 198.94 102.29 206.76 108.53 212.41 C 114.03 216.40 120.63 219.17 126.87 221.80 C 131.38 223.72 136.30 223.75 141.09 223.15 C 148.96 221.64 155.36 216.36 162.70 213.46 C 165.30 210.16 167.67 206.48 170.75 203.62 C 172.69 201.75 175.42 202.23 177.73 203.01 C 184.08 205.43 189.91 208.94 196.19 211.45 C 196.77 212.34 197.35 213.24 197.92 214.13 C 200.79 214.62 203.66 215.10 206.52 215.60 C 206.46 218.93 207.27 222.31 205.23 225.21 C 201.72 230.49 197.14 235.22 192.28 239.28 C 188.13 242.66 185.18 246.42 180.05 248.39 C 173.39 251.03 166.81 254.48 159.87 256.23 C 153.97 256.89 148.50 258.58 142.81 260.08 C 133.84 262.03 127.51 257.99 118.92 256.99 C 115.05 256.49 111.25 255.94 107.59 254.48 C 100.67 251.86 93.23 249.72 86.82 246.00 C 81.56 242.13 75.56 238.57 71.34 233.65 C 68.83 230.86 66.15 228.12 63.89 225.12 C 61.22 221.67 59.80 217.34 57.67 213.38 C 55.49 208.81 52.86 205.13 52.30 199.97 C 51.22 191.87 49.10 184.24 49.43 175.98 C 49.15 169.06 51.08 162.72 51.84 155.92 C 52.35 152.86 52.41 149.33 53.71 146.51 C 56.14 141.36 58.83 136.41 61.58 131.43 C 64.67 125.89 69.52 121.47 74.03 117.02 C 78.28 112.87 83.08 110.50 87.99 106.98 C 97.00 100.56 108.72 99.56 118.77 96.04 C 124.83 94.17 131.67 94.82 138.00 94.70 Z" fill="#010001"/>
  <path d="M 482.97 94.39 C 490.98 94.49 498.99 94.40 506.99 94.44 C 509.89 94.51 513.46 94.51 516.03 96.02 C 517.74 97.08 518.53 98.77 519.04 100.64 C 520.98 108.06 520.42 115.37 520.49 123.00 C 520.51 147.48 520.42 171.97 520.51 196.44 C 520.40 199.24 520.29 203.90 517.20 205.14 C 511.62 207.43 504.11 205.29 499.17 209.25 C 494.90 212.82 492.10 218.36 488.72 222.77 C 483.85 221.67 478.14 219.77 473.16 220.57 C 468.50 221.86 464.41 225.79 461.27 229.33 C 457.37 233.79 458.32 240.07 455.27 244.44 C 453.09 246.06 449.45 245.43 446.93 245.14 C 441.77 244.41 436.18 243.52 431.59 246.65 C 426.28 250.33 424.66 256.19 420.69 260.68 C 418.26 263.55 413.80 262.00 410.74 261.23 C 403.49 258.76 396.32 257.96 389.41 254.72 C 376.17 248.45 365.86 237.22 360.54 223.59 C 357.80 216.15 355.36 208.96 355.48 200.91 C 355.43 167.08 355.39 133.25 355.50 99.42 C 356.16 99.13 356.82 98.85 357.48 98.56 C 359.03 104.80 358.36 110.66 358.43 117.00 C 358.43 143.02 358.44 169.03 358.47 195.05 C 358.34 200.98 359.84 206.38 360.86 212.16 C 361.41 215.00 361.83 217.79 362.68 220.55 C 367.67 233.69 377.21 244.85 389.98 250.95 C 395.89 253.47 401.75 255.81 408.04 256.97 C 411.04 257.48 414.32 258.73 417.37 258.39 C 420.17 256.84 421.78 253.04 423.53 250.45 C 426.73 245.16 431.82 240.88 438.01 239.75 C 442.53 239.06 446.41 241.31 450.65 241.99 C 455.37 238.12 454.67 230.49 459.24 226.30 C 463.06 222.59 467.37 218.15 472.92 217.59 C 478.40 217.09 483.87 217.79 489.39 217.58 C 490.51 214.28 491.18 211.22 494.09 208.99 C 499.78 204.17 508.03 203.75 514.71 201.41 C 516.54 201.13 516.10 198.44 516.33 197.07 C 516.31 164.53 516.46 131.94 516.28 99.41 C 509.59 95.92 503.22 96.97 496.00 96.98 C 490.02 97.14 483.94 96.52 477.99 97.10 C 476.09 97.39 473.59 97.68 472.84 99.78 C 471.80 102.62 471.89 106.00 471.85 108.99 C 472.22 130.32 471.81 151.66 472.09 173.00 C 472.37 185.06 468.90 197.90 461.54 207.57 C 457.45 213.05 450.96 214.67 444.85 217.00 C 438.36 219.42 431.70 219.76 425.03 217.83 C 420.00 216.33 414.56 214.03 411.60 209.45 C 407.40 202.98 404.46 195.80 403.90 188.04 C 403.14 179.02 402.84 169.83 403.17 160.79 C 403.64 152.55 403.34 144.25 403.38 136.00 C 403.24 128.33 403.68 120.57 402.89 113.00 C 402.49 108.25 402.71 103.39 402.67 98.61 C 387.79 98.22 372.89 98.84 358.03 98.33 C 359.84 96.97 361.80 95.07 364.11 94.74 C 368.35 94.20 372.73 94.52 377.00 94.46 C 383.68 94.55 390.38 94.22 397.05 94.51 C 400.24 94.66 403.98 95.85 404.97 99.25 C 405.94 103.66 405.37 108.50 405.46 113.00 C 405.52 135.00 405.53 157.00 405.35 179.00 C 405.44 184.00 405.03 189.66 406.65 194.41 C 408.96 201.07 411.56 207.22 417.58 211.34 C 424.66 215.72 432.90 218.02 441.17 215.97 C 448.83 213.81 456.45 211.08 461.35 204.41 C 466.23 197.32 468.71 188.64 468.57 180.04 C 468.56 163.70 468.68 147.35 468.62 131.00 C 468.57 126.65 468.93 122.34 469.22 118.00 C 469.58 112.40 469.02 106.74 469.53 101.15 C 469.80 98.23 471.78 95.65 474.67 94.92 C 477.34 94.29 480.24 94.43 482.97 94.39 Z" fill="#010001"/>
  <path d="M 642.88 94.84 C 648.92 94.63 655.07 94.67 661.10 94.81 C 666.73 94.97 671.14 97.37 676.47 98.80 C 682.67 100.45 688.20 103.29 694.10 105.71 C 696.98 111.30 702.46 114.06 705.36 119.60 C 709.14 126.78 713.49 132.63 714.12 140.97 C 715.02 151.00 717.78 161.07 717.46 171.00 C 717.25 179.11 717.83 186.95 716.79 195.00 C 716.07 201.45 717.61 207.55 717.41 214.00 C 717.30 228.05 717.59 242.12 717.26 256.17 C 702.17 256.80 686.97 256.54 671.87 256.39 C 671.57 249.61 671.72 242.79 671.72 236.00 C 671.72 212.32 671.70 188.64 671.72 164.96 C 671.65 160.72 671.93 156.87 670.16 152.89 C 666.99 145.64 663.01 138.77 655.60 135.18 C 652.76 133.58 649.82 133.28 646.61 133.42 C 641.89 133.43 637.17 133.46 632.45 133.45 C 626.89 132.97 622.47 135.32 617.68 137.74 C 611.66 141.21 607.66 148.54 604.29 154.42 C 601.96 158.31 601.61 162.54 601.60 166.98 C 601.29 196.75 601.44 226.54 601.52 256.32 C 586.27 256.65 570.96 256.58 555.71 256.37 C 555.39 207.25 555.77 158.12 555.55 108.99 C 555.50 105.46 555.88 101.97 556.47 98.50 C 569.87 98.49 583.28 98.36 596.68 98.62 C 597.44 103.00 597.52 107.40 597.62 111.83 C 599.99 111.78 602.50 111.92 604.83 111.43 C 608.09 109.84 610.82 107.09 613.87 105.12 C 618.55 102.17 623.64 99.90 629.07 98.78 C 634.09 97.75 637.81 95.08 642.88 94.84 Z" fill="#010001"/>
  <path d="M 317.27 95.77 C 321.23 94.92 325.52 95.29 329.55 95.30 C 331.23 104.36 330.28 113.49 330.54 122.99 C 330.43 126.62 330.99 130.83 329.68 134.27 C 323.26 134.70 317.14 133.70 310.82 135.60 C 303.42 136.57 297.53 140.19 291.99 144.96 C 288.89 147.58 286.10 150.49 283.94 153.95 C 281.60 157.73 279.20 161.44 278.75 165.97 C 278.32 170.95 278.61 176.00 278.54 181.00 C 278.47 205.89 278.63 230.77 278.48 255.66 C 263.78 255.90 249.03 255.89 234.33 255.67 C 234.14 238.10 234.67 220.56 234.38 203.00 C 234.29 172.51 234.17 142.02 234.47 111.53 C 234.46 107.52 234.39 103.52 234.33 99.52 C 243.88 99.28 253.45 99.42 263.00 99.39 C 266.59 99.37 270.53 99.04 274.01 100.01 C 274.92 103.57 274.53 107.38 275.01 111.04 C 275.38 112.72 275.92 114.37 276.40 116.02 C 281.14 113.61 285.39 110.82 289.48 107.44 C 294.53 103.30 300.63 100.37 307.00 98.95 C 310.52 98.16 313.82 96.77 317.27 95.77 Z" fill="#010001"/>
  <path d="M 329.55 95.30 C 330.16 95.32 330.78 95.36 331.39 95.40 C 331.76 105.61 331.46 115.84 331.62 126.05 C 331.50 128.95 331.69 133.22 329.56 135.47 C 323.42 136.28 317.01 135.43 310.82 135.60 C 317.14 133.70 323.26 134.70 329.68 134.27 C 330.99 130.83 330.43 126.62 330.54 122.99 C 330.28 113.49 331.23 104.36 329.55 95.30 Z" fill="#010001"/>
  <path d="M 827.00 94.70 C 836.63 94.92 845.29 93.82 854.41 96.50 C 861.61 98.56 868.99 100.17 875.61 103.39 C 883.33 107.02 889.88 112.13 896.16 117.84 C 899.21 120.68 902.54 124.12 903.99 128.10 C 904.81 130.46 904.99 133.06 903.11 134.98 C 899.66 138.30 894.50 140.15 890.30 142.39 C 885.21 144.85 880.53 148.21 875.32 150.40 C 873.57 151.04 871.06 151.97 869.40 150.65 C 865.70 147.57 863.69 142.41 859.73 139.38 C 856.06 136.62 851.13 135.27 846.63 134.65 C 838.22 133.60 829.41 133.42 821.03 134.84 C 812.75 136.79 806.96 142.28 801.71 148.65 C 797.58 153.78 796.67 159.98 795.14 166.24 C 793.03 176.10 795.29 184.78 797.54 194.30 C 799.20 200.27 804.16 205.76 807.44 210.99 C 813.70 214.00 819.48 217.63 826.30 218.80 C 834.05 220.34 841.08 218.79 848.83 219.34 C 845.12 223.54 840.31 223.91 835.03 224.04 C 831.13 223.72 827.33 223.20 823.67 221.77 C 817.67 219.47 811.04 216.79 805.93 212.82 C 802.50 209.69 799.96 205.47 797.49 201.57 C 795.79 198.89 795.36 196.02 794.59 193.00 C 793.62 188.46 791.37 184.87 791.35 180.10 C 791.30 174.78 790.68 168.52 792.72 163.54 C 793.95 160.35 794.74 157.05 795.74 153.78 C 796.88 149.89 800.08 146.71 802.86 143.88 C 806.88 139.92 811.32 135.40 816.52 133.05 C 820.42 131.45 825.39 131.87 829.50 130.80 C 832.05 130.26 834.06 129.15 836.70 130.00 C 842.47 131.70 848.54 131.69 853.46 134.67 C 856.59 136.37 859.83 138.06 862.31 140.68 C 865.01 143.38 867.11 147.27 870.24 149.41 C 872.22 150.34 875.07 149.31 876.92 148.40 C 885.40 144.07 893.71 138.39 902.65 135.16 C 902.49 132.01 903.28 127.58 900.96 125.12 C 897.54 120.87 893.60 117.00 889.57 113.33 C 884.00 108.09 876.26 104.74 869.26 101.86 C 865.15 100.07 860.85 99.35 856.55 98.22 C 852.24 97.09 848.62 95.21 844.04 95.28 C 837.37 95.27 830.68 95.17 824.01 95.29 C 820.56 95.30 817.77 96.67 814.58 97.72 C 809.59 99.43 804.55 99.13 799.67 101.31 C 795.66 103.14 791.03 103.90 787.57 106.43 C 784.87 108.32 782.24 110.27 779.39 111.92 C 774.86 114.54 770.85 118.42 767.11 122.06 C 763.10 125.95 761.11 130.49 758.02 135.11 C 755.89 138.33 754.46 141.76 753.27 145.42 C 751.87 149.77 749.48 153.47 749.38 157.95 C 749.09 169.64 749.26 181.37 749.31 193.07 C 749.28 196.08 749.61 198.97 750.82 201.76 C 752.92 206.74 754.49 211.68 757.71 216.11 C 760.56 220.15 762.50 224.61 765.73 228.25 C 770.35 233.53 775.52 238.26 781.46 242.02 C 787.48 246.33 793.60 250.19 800.83 252.15 C 806.19 253.59 810.32 256.31 815.97 256.57 C 822.47 256.94 828.53 258.96 835.05 258.85 C 841.60 259.14 847.57 257.30 854.02 256.60 C 858.96 256.18 862.84 253.89 867.40 252.27 C 873.30 250.09 878.85 248.00 883.69 243.82 C 888.51 239.61 893.93 235.65 897.93 230.74 C 900.72 227.33 904.08 223.92 906.25 220.08 C 904.76 218.27 902.99 216.67 900.84 215.68 C 894.53 212.64 888.22 209.83 882.17 206.26 C 878.92 204.58 875.72 202.08 871.92 202.16 C 869.44 203.25 867.59 206.05 865.85 208.08 C 861.45 213.69 856.21 218.45 848.83 219.34 C 851.74 215.40 855.82 213.38 859.51 210.38 C 863.22 207.39 864.93 202.89 868.34 199.77 C 871.71 197.41 875.46 199.60 878.74 200.98 C 883.51 203.50 888.29 205.98 893.03 208.56 C 896.42 212.32 900.52 214.74 904.77 217.37 C 906.60 218.44 907.70 220.16 906.33 222.13 C 902.11 229.27 896.86 236.16 890.27 241.28 C 882.79 247.40 874.39 250.32 865.52 253.76 C 857.94 256.64 849.80 258.21 841.83 259.63 C 832.00 261.43 823.51 258.02 813.09 256.77 C 793.42 252.74 774.68 241.63 762.56 225.49 C 756.60 216.90 750.86 207.55 748.80 197.18 C 746.33 184.33 746.58 171.12 748.17 158.18 C 749.29 149.26 753.16 140.46 757.70 132.77 C 763.50 122.83 772.12 114.76 781.96 108.88 C 788.55 104.62 795.51 101.13 803.21 99.39 C 811.53 97.55 818.44 94.62 827.00 94.70 Z" fill="#010001"/>
  <path d="M 824.01 95.29 C 830.68 95.17 837.37 95.27 844.04 95.28 C 848.62 95.21 852.24 97.09 856.55 98.22 C 860.85 99.35 865.15 100.07 869.26 101.86 C 876.26 104.74 884.00 108.09 889.57 113.33 C 893.60 117.00 897.54 120.87 900.96 125.12 C 903.28 127.58 902.49 132.01 902.65 135.16 C 893.71 138.39 885.40 144.07 876.92 148.40 C 875.07 149.31 872.22 150.34 870.24 149.41 C 867.11 147.27 865.01 143.38 862.31 140.68 C 859.83 138.06 856.59 136.37 853.46 134.67 C 848.54 131.69 842.47 131.70 836.70 130.00 C 834.06 129.15 832.05 130.26 829.50 130.80 C 825.39 131.87 820.42 131.45 816.52 133.05 C 811.32 135.40 806.88 139.92 802.86 143.88 C 800.08 146.71 796.88 149.89 795.74 153.78 C 794.74 157.05 793.95 160.35 792.72 163.54 C 790.68 168.52 791.30 174.78 791.35 180.10 C 791.37 184.87 793.62 188.46 794.59 193.00 C 795.36 196.02 795.79 198.89 797.49 201.57 C 799.96 205.47 802.50 209.69 805.93 212.82 C 811.04 216.79 817.67 219.47 823.67 221.77 C 827.33 223.20 831.13 223.72 835.03 224.04 C 840.31 223.91 845.12 223.54 848.83 219.34 C 856.21 218.45 861.45 213.69 865.85 208.08 C 867.59 206.05 869.44 203.25 871.92 202.16 C 875.72 202.08 878.92 204.58 882.17 206.26 C 888.22 209.83 894.53 212.64 900.84 215.68 C 902.99 216.67 904.76 218.27 906.25 220.08 C 904.08 223.92 900.72 227.33 897.93 230.74 C 893.93 235.65 888.51 239.61 883.69 243.82 C 878.85 248.00 873.30 250.09 867.40 252.27 C 862.84 253.89 858.96 256.18 854.02 256.60 C 847.57 257.30 841.60 259.14 835.05 258.85 C 828.53 258.96 822.47 256.94 815.97 256.57 C 810.32 256.31 806.19 253.59 800.83 252.15 C 793.60 250.19 787.48 246.33 781.46 242.02 C 775.52 238.26 770.35 233.53 765.73 228.25 C 762.50 224.61 760.56 220.15 757.71 216.11 C 754.49 211.68 752.92 206.74 750.82 201.76 C 749.61 198.97 749.28 196.08 749.31 193.07 C 749.26 181.37 749.09 169.64 749.38 157.95 C 749.48 153.47 751.87 149.77 753.27 145.42 C 754.46 141.76 755.89 138.33 758.02 135.11 C 761.11 130.49 763.10 125.95 767.11 122.06 C 770.85 118.42 774.86 114.54 779.39 111.92 C 782.24 110.27 784.87 108.32 787.57 106.43 C 791.03 103.90 795.66 103.14 799.67 101.31 C 804.55 99.13 809.59 99.43 814.58 97.72 C 817.77 96.67 820.56 95.30 824.01 95.29 Z" fill="#010001"/>
  <path d="M 241.95 97.42 C 252.82 97.62 263.69 97.44 274.55 97.62 C 274.66 102.11 274.56 106.57 275.01 111.04 C 274.53 107.38 274.92 103.57 274.01 100.01 C 270.53 99.04 266.59 99.37 263.00 99.39 C 253.45 99.42 243.88 99.28 234.33 99.52 C 234.39 103.52 234.46 107.52 234.47 111.53 C 234.17 142.02 234.29 172.51 234.38 203.00 C 234.67 220.56 234.14 238.10 234.33 255.67 C 249.03 255.89 263.78 255.90 278.48 255.66 C 278.63 230.77 278.47 205.89 278.54 181.00 C 278.61 176.00 278.32 170.95 278.75 165.97 C 279.20 161.44 281.60 157.73 283.94 153.95 C 286.10 150.49 288.89 147.58 291.99 144.96 C 286.06 152.33 280.94 160.44 280.00 170.08 C 279.25 178.33 279.78 186.72 279.67 195.00 C 279.54 215.56 279.86 236.12 279.55 256.67 C 264.17 257.32 248.52 257.32 233.14 256.66 C 232.41 242.49 233.14 228.19 233.04 214.00 C 232.75 181.00 232.78 148.00 232.89 115.00 C 233.04 109.53 232.09 103.24 233.82 98.01 C 236.45 97.41 239.26 97.47 241.95 97.42 Z" fill="#010001"/>
  <path d="M 477.99 97.10 C 483.94 96.52 490.02 97.14 496.00 96.98 C 503.22 96.97 509.59 95.92 516.28 99.41 C 502.07 99.44 487.83 99.02 473.63 99.57 C 473.28 125.73 473.57 151.90 473.46 178.06 C 473.40 184.52 470.93 191.16 468.88 197.25 C 466.25 203.59 461.94 211.09 455.53 214.20 C 450.71 216.38 445.36 219.13 440.03 219.46 C 435.40 219.61 430.63 219.82 426.03 219.17 C 417.82 217.33 410.12 211.77 405.90 204.46 C 402.78 198.40 403.90 192.51 403.14 186.10 C 401.79 177.83 402.42 169.09 403.17 160.79 C 402.84 169.83 403.14 179.02 403.90 188.04 C 404.46 195.80 407.40 202.98 411.60 209.45 C 414.56 214.03 420.00 216.33 425.03 217.83 C 431.70 219.76 438.36 219.42 444.85 217.00 C 450.96 214.67 457.45 213.05 461.54 207.57 C 468.90 197.90 472.37 185.06 472.09 173.00 C 471.81 151.66 472.22 130.32 471.85 108.99 C 471.89 106.00 471.80 102.62 472.84 99.78 C 473.59 97.68 476.09 97.39 477.99 97.10 Z" fill="#010001"/>
  <path d="M 358.03 98.33 C 372.89 98.84 387.79 98.22 402.67 98.61 C 402.71 103.39 402.49 108.25 402.89 113.00 C 403.68 120.57 403.24 128.33 403.38 136.00 C 403.34 144.25 403.64 152.55 403.17 160.79 C 402.42 169.09 401.79 177.83 403.14 186.10 C 403.90 192.51 402.78 198.40 405.90 204.46 C 410.12 211.77 417.82 217.33 426.03 219.17 C 430.63 219.82 435.40 219.61 440.03 219.46 C 445.36 219.13 450.71 216.38 455.53 214.20 C 461.94 211.09 466.25 203.59 468.88 197.25 C 470.93 191.16 473.40 184.52 473.46 178.06 C 473.57 151.90 473.28 125.73 473.63 99.57 C 487.83 99.02 502.07 99.44 516.28 99.41 C 516.46 131.94 516.31 164.53 516.33 197.07 C 516.10 198.44 516.54 201.13 514.71 201.41 C 508.03 203.75 499.78 204.17 494.09 208.99 C 491.18 211.22 490.51 214.28 489.39 217.58 C 483.87 217.79 478.40 217.09 472.92 217.59 C 467.37 218.15 463.06 222.59 459.24 226.30 C 454.67 230.49 455.37 238.12 450.65 241.99 C 446.41 241.31 442.53 239.06 438.01 239.75 C 431.82 240.88 426.73 245.16 423.53 250.45 C 421.78 253.04 420.17 256.84 417.37 258.39 C 414.32 258.73 411.04 257.48 408.04 256.97 C 401.75 255.81 395.89 253.47 389.98 250.95 C 377.21 244.85 367.67 233.69 362.68 220.55 C 361.83 217.79 361.41 215.00 360.86 212.16 C 359.84 206.38 358.34 200.98 358.47 195.05 C 358.44 169.03 358.43 143.02 358.43 117.00 C 358.36 110.66 359.03 104.80 357.48 98.56 L 358.03 98.33 Z" fill="#010001"/>
  <path d="M 1461.01 99.43 C 1467.38 99.37 1473.68 99.69 1480 100.53 C 1477.56 109.74 1473.4 118.1 1469.81 126.86 C 1465.99 136.51 1460.91 145.13 1458.05 155.06 C 1455.85 162.83 1451.79 169.57 1448.88 177.02 C 1446.79 182.32 1445.11 187.69 1442.81 192.92 C 1440.79 197.52 1438.64 202.07 1436.73 206.72 C 1432.46 217.24 1427.58 227.35 1424.08 238.18 C 1421.3 247.02 1416.6 254.71 1413.11 263.24 C 1410.91 268.58 1408.66 273.87 1405.76 278.88 C 1400.99 287.09 1397.16 295.42 1389.85 301.76 C 1381.87 308.66 1372.51 311.59 1362.5 314.24 C 1356.17 315.9 1349.47 315.85 1342.95 315.7 C 1335.32 315.6 1327.39 312.86 1320.15 310.53 C 1316.66 309.17 1311.84 307.53 1309.7 304.28 C 1309.13 300.89 1311.49 296.93 1312.82 293.89 C 1315.49 288.75 1317.25 283.08 1320.25 278.14 C 1321.43 276.34 1322.66 275.46 1324.88 276.05 C 1330 277.19 1334.64 279.68 1339.92 280.39 C 1346.78 281.34 1354.39 280.97 1360.56 277.55 C 1365.99 274.58 1369.79 268.59 1372.13 263.03 C 1373.41 260.02 1373.4 257.75 1372.38 254.67 C 1368.82 244.6 1365.86 234.56 1361.01 225.01 C 1357.14 217.41 1355 209.24 1351.59 201.46 C 1346.72 191.53 1342.33 181.4 1337.68 171.37 C 1335.02 165.77 1333.16 159.92 1330.96 154.15 C 1328.55 147.78 1325.05 141.99 1322.56 135.65 C 1319.35 127.58 1316.01 119.57 1312.21 111.75 C 1310.42 108.09 1308.97 104.32 1307.68 100.46 C 1318.13 99.41 1328.52 99.69 1339 99.68 C 1342.66 99.79 1346.71 99.77 1350.18 101.03 C 1352.82 102.04 1353.91 105.77 1354.83 108.17 C 1358.04 118.25 1362.28 127.9 1365.89 137.84 C 1369.81 148.46 1374.73 158.65 1378.48 169.35 C 1380.42 174.94 1382.79 180.27 1385.48 185.54 C 1387.75 189.86 1388.95 194.63 1391.16 198.96 C 1392.35 201.28 1394.41 202.68 1396.9 203.33 C 1400.51 200.93 1401.79 195.95 1403.2 192.08 C 1405.67 184.26 1409.67 177.19 1412.5 169.51 C 1414.89 163.04 1417.61 156.7 1420.4 150.4 C 1425.33 139.19 1428.43 127.42 1433.2 116.15 C 1435.5 110.74 1437.64 105.24 1440.09 99.89 C 1446.97 99.04 1454.08 99.51 1461.01 99.43 Z" fill="#0a8935"/>
  <path d="M 1516.96 99.01 C 1522.77 98.69 1528.78 99.40 1534.60 100.07 C 1535.80 109.39 1535.45 118.64 1535.46 128.00 C 1535.61 163.33 1535.48 198.67 1535.53 234.00 C 1535.45 239.53 1536.04 245.39 1534.96 250.82 C 1534.57 254.02 1530.39 254.64 1527.84 255.10 C 1520.93 255.83 1513.88 255.48 1506.94 255.48 C 1504.52 255.29 1500.33 255.38 1498.78 253.18 C 1497.67 247.77 1498.61 242.00 1497.92 236.49 C 1497.04 229.27 1497.84 222.23 1498.32 215.04 C 1498.72 183.67 1498.02 152.34 1498.40 121.00 C 1498.28 113.95 1498.48 107.01 1499.74 100.06 C 1505.47 99.64 1511.22 99.38 1516.96 99.01 Z" fill="#0a8935"/>
  <path d="M 694.10 105.71 C 699.51 107.22 703.40 110.97 706.46 115.51 C 712.04 123.62 716.28 132.53 718.40 142.17 C 719.29 146.83 719.38 151.42 719.95 156.10 C 721.01 164.19 720.49 172.79 720.55 181.00 C 720.61 204.69 720.50 228.38 720.59 252.06 C 720.46 254.14 720.58 257.11 718.32 258.13 C 715.11 259.25 711.37 259.24 708.00 259.29 C 699.00 259.26 690.00 259.26 681.00 259.38 C 678.16 259.36 675.06 259.44 672.31 258.67 C 671.37 258.36 669.63 257.65 669.62 256.48 C 668.89 251.42 669.43 246.12 669.38 241.00 C 669.48 217.67 669.35 194.33 669.44 171.00 C 669.58 163.85 668.09 156.85 665.45 150.23 C 663.47 145.44 659.93 141.40 655.38 138.92 C 652.33 137.26 649.34 135.58 646.61 133.42 C 649.82 133.28 652.76 133.58 655.60 135.18 C 663.01 138.77 666.99 145.64 670.16 152.89 C 671.93 156.87 671.65 160.72 671.72 164.96 C 671.70 188.64 671.72 212.32 671.72 236.00 C 671.72 242.79 671.57 249.61 671.87 256.39 C 686.97 256.54 702.17 256.80 717.26 256.17 C 717.59 242.12 717.30 228.05 717.41 214.00 C 717.61 207.55 716.07 201.45 716.79 195.00 C 717.83 186.95 717.25 179.11 717.46 171.00 C 717.78 161.07 715.02 151.00 714.12 140.97 C 713.49 132.63 709.14 126.78 705.36 119.60 C 702.46 114.06 696.98 111.30 694.10 105.71 Z" fill="#010001"/>
  <path d="M 1010.96 131.53 C 1016.66 131.51 1022.80 131.14 1028.18 133.21 C 1032.86 135.09 1037.28 137.27 1040.19 141.56 C 1043.66 147.15 1046.41 153.28 1048.27 159.59 C 1049.94 164.95 1049.43 170.41 1049.47 176.00 C 1049.47 196.00 1049.47 216.00 1049.43 236.00 C 1049.45 242.89 1048.88 249.44 1050.61 256.21 C 1049.58 256.07 1048.54 255.92 1047.51 255.76 C 1047.26 226.84 1047.69 197.91 1047.42 168.98 C 1047.27 164.17 1046.95 159.16 1045.65 154.49 C 1044.88 151.62 1042.93 149.93 1040.90 147.93 L 1040.64 147.25 C 1039.54 144.38 1038.47 141.07 1036.00 139.07 C 1032.18 136.25 1027.19 134.81 1022.66 133.58 C 1014.52 131.44 1006.56 132.99 998.86 135.94 C 992.54 138.16 987.36 144.11 983.01 149.03 C 978.18 156.03 976.46 165.62 976.56 174.00 C 976.69 195.00 976.61 216.00 976.62 237.00 C 976.57 243.27 977.37 250.37 975.64 256.39 C 975.42 226.92 975.66 197.45 975.52 167.98 C 975.27 160.53 977.72 152.45 982.70 146.83 C 985.75 143.94 988.63 140.84 991.77 138.08 C 997.26 134.09 1004.10 131.43 1010.96 131.53 Z" fill="#010001"/>
  <path d="M 1144.42 205.68 C 1150.52 205.25 1157.87 205.04 1163.48 207.79 C 1168.39 211.17 1173.62 216.70 1174.03 222.97 C 1174.65 227.99 1174.80 233.19 1174.04 238.21 C 1173.05 245.01 1168.53 251.12 1162.52 254.35 C 1152.77 259.17 1140.73 258.26 1131.74 252.19 C 1127.12 249.02 1125.06 243.36 1124.30 238.03 C 1123.51 232.15 1123.25 225.55 1125.15 219.86 C 1128.19 211.87 1135.95 206.38 1144.42 205.68 Z" fill="#0a8935"/>
</svg>